<?xml version="1.0"?>
<svg xmlns="http://www.w3.org/2000/svg" id="filled_outline" data-name="filled outline" viewBox="0 0 512 512" width="512" height="512"><polygon points="152 264 152 448 192 464 208 312 224 464 264 448 264 264 152 264" style="fill:#718799"/><path d="M392,172.68a30.60177,30.60177,0,0,1-7.37,19.92l-30.45,35.52a34.01287,34.01287,0,0,1-52.39-.89l-11.12-13.9-7.43-9.27A10.80084,10.80084,0,0,0,264,210.81V264H152V211.31a11.31371,11.31371,0,0,0-19.31-8L112,224l38.64,46.37a5.872,5.872,0,0,1-4.51,9.63H136l16,16-4.12,4.12a27.195,27.195,0,0,1-40.98-2.91L73.03,252.03A45.10743,45.10743,0,0,1,75.17,195.24L86.4,182.4l24.04-27.47A31.96374,31.96374,0,0,1,134.52,144H278.87a32.01965,32.01965,0,0,1,26.63,14.25L328,192l20.01-20.01V153.64a5.66392,5.66392,0,0,1,9.66-4l6.34,6.35L376,144l7.04,7.04A30.63217,30.63217,0,0,1,392,172.68Z" style="fill:#ffceb6"/><path d="M321.6,182.4l-30.93,30.93-7.43-9.27A10.80084,10.80084,0,0,0,264,210.81V264H152V211.31a11.31371,11.31371,0,0,0-19.31-8L120,216,86.4,182.4l24.04-27.47A31.96374,31.96374,0,0,1,134.52,144H278.87a32.01965,32.01965,0,0,1,26.63,14.25Z" style="fill:#548aff"/><polygon points="224 168 216 184 224 224 208 240 192 224 200 184 192 168 208 152 224 168" style="fill:#f5714f"/><path d="M351.02943,88l92,92a16.97055,16.97055,0,0,1,0,24l0,0a16.97055,16.97055,0,0,1-24,0l-92-92Z" style="fill:#b1712c"/><polygon points="224 464 224 488 296 488 296 472 264 448 224 464" style="fill:#e0edff"/><polygon points="192 464 192 488 120 488 120 472 152 448 192 464" style="fill:#e0edff"/><path d="M208,152h0a24,24,0,0,1-24-24v-8l16-16h32v24A24,24,0,0,1,208,152Z" style="fill:#ffceb6"/><path d="M232,104l6.63344-13.26688A12.94424,12.94424,0,0,0,240,84.94427h0A12.94426,12.94426,0,0,0,227.05574,72H208a24,24,0,0,0-24,24v24l16-16Z" style="fill:#b1712c"/><circle cx="311.02943" cy="72" r="48" style="fill:#9ce6ed"/><path d="M100.50391,302.00537a35.0367,35.0367,0,0,0,17.02392,12.27A35.404,35.404,0,0,0,128.7373,316.105,34.83669,34.83669,0,0,0,144,312.57812V444.00024L115.2002,465.6001A7.99927,7.99927,0,0,0,112,472v16a7.99977,7.99977,0,0,0,8,8h72a7.99977,7.99977,0,0,0,8-8V464.41992l8-76,8,76V488a7.99977,7.99977,0,0,0,8,8h72a7.99977,7.99977,0,0,0,8-8V472a7.99927,7.99927,0,0,0-3.2002-6.3999L272,444.00024V210.80615a2.80624,2.80624,0,0,1,4.99756-1.75293l18.541,23.17578a42.02226,42.02226,0,0,0,64.71924,1.09668l30.44873-35.52343a38.64764,38.64764,0,0,0,4.42707-6.38446l18.239,18.239A24.9704,24.9704,0,1,0,448.686,174.34326l-84.56611-84.5661a56.04562,56.04562,0,1,0-35.31347,35.31348L346.039,142.32318a13.65428,13.65428,0,0,0-6.02679,11.32135v15.02979l-10.769,10.76855L312.15625,153.812A39.92,39.92,0,0,0,278.874,136H238.98743A31.948,31.948,0,0,0,240,128V105.88824l5.78857-11.57672A20.94437,20.94437,0,0,0,227.05566,64H208a32.036,32.036,0,0,0-32,32v32a31.948,31.948,0,0,0,1.01257,8H134.52051a39.99865,39.99865,0,0,0-30.103,13.65967l-35.272,40.311A53.12937,53.12937,0,0,0,66.626,256.83447Zm37.83935-93.03516A3.31388,3.31388,0,0,1,144,211.31348v38.58984l-21.17725-25.4126ZM128,480v-4l25.20312-18.90253L184,469.4162V480Zm80-176a7.99987,7.99987,0,0,0-7.95605,7.1626L185.15137,452.644,160,442.5835V272h96V442.5835L230.84863,452.644,215.95605,311.1626A7.99987,7.99987,0,0,0,208,304Zm80,176H232V469.4162l30.79688-12.31873L288,476ZM271.0293,72a40,40,0,1,1,40,40A40.0452,40.0452,0,0,1,271.0293,72Zm85.40521,32.71869,80.93805,80.93805A8.97072,8.97072,0,1,1,424.686,198.34326l-80.938-80.938A56.45443,56.45443,0,0,0,356.43451,104.71869ZM328.00049,200a7.99829,7.99829,0,0,0,5.65625-2.34326L353.669,177.64453a7.99879,7.99879,0,0,0,2.34326-5.65674V159.30127l2.34326,2.34326a7.99981,7.99981,0,0,0,8.732,1.72711l15.9162,15.9162a22.55854,22.55854,0,0,1-4.446,8.1023l-30.44824,35.523a26.02225,26.02225,0,0,1-40.07715-.6792l-6.64557-8.30707,18.97-18.97.98712,1.48065a7.99832,7.99832,0,0,0,5.86816,3.52344Q327.6067,200.00048,328.00049,200ZM215.31592,221.37061,208,228.68652l-7.31592-7.31591L206.55847,192h2.88306ZM176,152h10.86768a32.18322,32.18322,0,0,0,4.31494,3.2088L176,167.355Zm32-8a16.01833,16.01833,0,0,1-16-16v-4.68652L203.31348,112H224v16A16.01833,16.01833,0,0,1,208,144Zm3.05591,32h-6.11182l-4.03937-8.07867L208,162.24512l7.09528,5.67621Zm13.76147-20.7912A32.18322,32.18322,0,0,0,229.13232,152H240v15.355ZM208,80h19.05566a4.94417,4.94417,0,0,1,4.42237,7.15527L227.05585,96H200a7.99877,7.99877,0,0,0-5.65674,2.34326L192,100.68652V96A16.01833,16.01833,0,0,1,208,80Zm-91.5415,80.1958A23.99994,23.99994,0,0,1,134.52051,152H160v32a8.00011,8.00011,0,0,0,12.99756,6.24707l15.12994-12.10394,3.48969,6.97943-7.46192,37.30859a7.99967,7.99967,0,0,0,2.188,7.22559l16,16a7.99945,7.99945,0,0,0,11.31348,0l16-16a7.99967,7.99967,0,0,0,2.188-7.22559l-7.46192-37.30859,3.48969-6.97943,15.12994,12.10394A8.00013,8.00013,0,0,0,256,184V152h22.874a23.95187,23.95187,0,0,1,19.96924,10.687l12.46253,18.69373-19.97553,19.97552-1.83856-2.29815A18.80639,18.80639,0,0,0,256,210.80615V256H160V211.31348a19.31354,19.31354,0,0,0-32.97021-13.65674L120,204.68652,97.34894,182.03546Zm-35.272,40.311,5.60315-6.40369L108.68652,216l-2.34326,2.34326a7.99986,7.99986,0,0,0-.48877,10.77832L141.58643,272H136a7.99981,7.99981,0,0,0-5.65674,13.65674l10.25733,10.25781a19.19452,19.19452,0,0,1-27.29688-3.50928L79.42578,247.23486a37.13055,37.13055,0,0,1,1.76074-46.728Z"/></svg>
